<svg xmlns="http://www.w3.org/2000/svg" viewBox="0 0 70.15 55.99">
  <path
    d="M16.1,8.8c-4.74,4-9.52,8.17-12.7,13.59s-4.51,12.08-2.4,17.95,7.26,9.51,13.04,11.61,12.19,3.26,18.36,3.81,12.74.21,18.78-1.64c3-.92,6.04-2.2,8.66-3.94,2.85-1.89,4.94-4.37,6.32-7.49,2.63-5.94,4.45-12.76,3.89-19.31-.53-6.2-3.19-11.92-7.95-15.99C57.04,3.06,50.72.76,44.15.16c-8-.73-16.04,1.12-23.67,3.33-3.7,1.07-2.13,6.86,1.6,5.79,10.6-3.06,22.79-5.56,32.8.28,3.95,2.3,7.13,5.7,8.47,10.22,1.57,5.3.63,10.95-1.01,16.11-.78,2.45-1.64,5.2-3.33,7.19s-4.24,3.27-6.61,4.25c-4.96,2.07-10.38,2.76-15.72,2.66s-11.09-1.05-16.49-2.45c-4.36-1.13-9.23-2.66-12.01-6.31-3.19-4.18-2.53-10.24-.18-14.75,2.85-5.47,7.71-9.53,12.35-13.44,1.24-1.04,1.08-3.17,0-4.24-1.23-1.23-3-1.05-4.24,0h0Z" />
  <path d="M26.92,31c2.35,0,4.61-2.07,4.5-4.5s-1.98-4.5-4.5-4.5c-2.35,0-4.61,2.07-4.5,4.5s1.98,4.5,4.5,4.5h0Z" />
  <path d="M46.69,32.25c2.35,0,4.61-2.07,4.5-4.5s-1.98-4.5-4.5-4.5c-2.35,0-4.61,2.07-4.5,4.5s1.98,4.5,4.5,4.5h0Z" />
</svg>